<?xml version="1.0" encoding="UTF-8"?>
<svg version="1.1" xmlns="http://www.w3.org/2000/svg" width="1535" height="1170">
<path d="M0 0 C0 46.53 0 93.06 0 141 C-13.5267746 147.7633873 -13.5267746 147.7633873 -18.94140625 149.97265625 C-19.53850403 150.21712494 -20.13560181 150.46159363 -20.75079346 150.71347046 C-22.68557914 151.50268963 -24.62355951 152.28354832 -26.5625 153.0625 C-27.24806976 153.33901398 -27.93363953 153.61552795 -28.63998413 153.90042114 C-70.86487153 170.90739072 -113.91564385 185.59381659 -158 197 C-159.19792175 197.31003967 -159.19792175 197.31003967 -160.42004395 197.62634277 C-249.10961957 220.4952116 -340.03408239 231.58637284 -768.38474035 228.71321929 C-773.21377196 228.47728974 -778.0428251 228.24180469 -782.87188721 228.00650024 C-785.6204847 227.87252418 -788.36908043 227.73851207 -791.11767578 227.60449219 C-792.13475837 227.55491541 -792.13475837 227.55491541 -793.17238808 227.50433707 C-801.70999918 227.08805274 -810.24736996 226.66718064 -818.78452873 226.24170303 C-844.56613323 224.95870579 -870.34699912 223.77905625 -896.14453125 222.86328125 C-897.28176447 222.82280985 -898.41899769 222.78233845 -899.59069252 222.74064064 C-991.04216447 219.51601561 -1082.89529076 219.46252517 -1174 229 C-1174.87279602 229.09110046 -1175.74559204 229.18220093 -1176.64483643 229.27606201 C-1211.00157875 232.88926445 -1245.14671658 237.9872878 -1279.0625 244.5625 C-1279.73408142 244.69235291 -1280.40566284 244.82220581 -1281.09759521 244.95599365 C-1295.12865525 247.68876329 -1309.04236161 250.89830258 -1323 254 C-1323.33 299.54 -1323.66 345.08 -1324 392 C-1314.1 389.69 -1304.2 387.38 -1294 385 C-1288.14964551 383.78006675 -1282.3121527 382.58252671 -1276.4375 381.5 C-1275.31769241 381.29154953 -1275.31769241 381.29154953 -1274.17526245 381.07888794 C-1216.45863516 370.37139312 -1158.21923669 364.06232601 -1099.625 360.875 C-1098.92125244 360.83620728 -1098.21750488 360.79741455 -1097.49243164 360.75744629 C-1091.99667309 360.46005395 -1086.49941914 360.21876639 -1081 360 C-1079.917117 359.95656464 -1078.83423401 359.91312927 -1077.71853638 359.86837769 C-1052.21152654 358.88448837 -1026.7107818 358.79821091 -1001.1875 358.8125 C-1000.11478725 358.81276688 -999.04207451 358.81303375 -997.93685532 358.81330872 C-959.25543321 358.8253419 -920.64817822 359.38728175 -882 361 C-880.908475 361.04529972 -880.908475 361.04529972 -879.79489899 361.09151459 C-844.26165571 362.56835617 -808.74137201 364.33136865 -773.21961403 366.05808735 C-765.28576138 366.44370883 -757.35188067 366.82873924 -749.41793823 367.21250916 C-748.61788766 367.25121248 -747.81783708 367.28991581 -746.99354255 367.32979196 C-743.74571898 367.4868995 -740.49789491 367.64399665 -737.25006557 367.80098474 C-728.45990375 368.22590822 -719.66983706 368.65260408 -710.88006592 369.08554077 C-658.75503788 371.65232606 -606.61813846 374.05671913 -554.42618561 374.66140366 C-552.09666625 374.68855885 -549.76717663 374.71769693 -547.43768311 374.74697876 C-450.9051835 375.93257367 -354.38397644 371.56589839 -101.20721436 317.72857666 C-98.95345645 316.9846365 -96.69784209 316.24654842 -94.44189453 315.50927734 C-75.98518779 309.46220161 -57.78032508 302.91125962 -39.75 295.6875 C-38.52647324 295.19777206 -38.52647324 295.19777206 -37.27822876 294.69815063 C-27.65456931 290.83230501 -18.12425122 286.8057354 -8.70916748 282.45329285 C-3.32186666 280 -3.32186666 280 0 280 C0 326.53 0 373.06 0 421 C-39.62668635 437.81132148 -39.62668635 437.81132148 -53 442.875 C-54.27148895 443.35809631 -54.27148895 443.35809631 -55.56866455 443.85095215 C-144.9120331 477.66669981 -238.79142385 497.85304247 -414.75 514.1875 C-415.75835403 514.24289444 -415.75835403 514.24289444 -416.78707886 514.29940796 C-421.00624861 514.52623659 -425.22609844 514.71885104 -429.44769287 514.89285278 C-431.22605713 514.96750946 -433.00424897 515.04634063 -434.7822876 515.12838745 C-462.29639906 516.37690499 -489.83910052 516.20175909 -517.375 516.1875 C-518.66031239 516.18708584 -519.94562477 516.18667168 -521.26988602 516.18624496 C-559.62336032 516.17077641 -597.90476749 515.95182057 -636.22436523 514.2154541 C-640.63623614 514.01560768 -645.04835139 513.82159032 -649.46051216 513.62826157 C-701.74780633 511.33635054 -754.02139636 508.76603461 -806.29335403 506.15085983 C-842.95288905 504.31256326 -842.95288905 504.31256326 -879.625 502.75 C-880.52614532 502.71484283 -881.42729065 502.67968567 -882.35574341 502.64346313 C-887.56767272 502.44307302 -892.78001798 502.26553625 -897.99316406 502.1000061 C-901.30445895 501.98987382 -904.61500773 501.86381256 -907.92578125 501.73901367 C-935.78784563 500.75405526 -963.66041059 500.81230844 -991.5362519 500.81488907 C-996.34792273 500.81458549 -1001.15953717 500.8064254 -1005.97119141 500.79418945 C-1040.02437574 500.70965075 -1073.9935212 501.05295034 -1108 503 C-1108.70310303 503.040005 -1109.40620605 503.08000999 -1110.13061523 503.12122726 C-1118.30326844 503.59112063 -1126.46481857 504.16308383 -1134.625 504.8125 C-1135.70557678 504.89648041 -1136.78615356 504.98046082 -1137.8994751 505.06698608 C-1234.48323731 512.60945708 -1329.68157164 530.2265079 -1505 597.375 C-1505.6071283 597.65791901 -1506.21425659 597.94083801 -1506.83978271 598.23233032 C-1512.22913984 600.74917205 -1517.60619601 603.28469765 -1522.9140625 605.96972656 C-1523.55585449 606.2942984 -1524.19764648 606.61887024 -1524.85888672 606.95327759 C-1526.65305774 607.86481074 -1528.4438188 608.78304661 -1530.234375 609.70166016 C-1533 611 -1533 611 -1535 611 C-1535 472.4 -1535 333.8 -1535 191 C-1522.94624893 184.65592049 -1510.99491623 178.45927411 -1498.625 172.8125 C-1497.8440799 172.45482544 -1497.06315979 172.09715088 -1496.25857544 171.7286377 C-1418.55142773 136.22064866 -1336.38792006 112.09263308 -1005.62881869 79.74286193 C-1000.88939814 79.7503487 -996.15006188 79.74772036 -991.41064453 79.73925781 C-933.2651089 79.63855088 -875.2674387 81.72743495 -817.19535828 84.61997986 C-810.4843031 84.95272785 -803.77290644 85.27843897 -797.06152344 85.60449219 C-794.30611966 85.73845038 -791.5507186 85.87246423 -788.7953186 86.00650024 C-788.11133503 86.03976886 -787.42735146 86.07303747 -786.72264111 86.10731423 C-779.84605271 86.44191949 -772.96956573 86.77858904 -766.09308267 87.11535096 C-725.26748986 89.11444988 -684.44081435 91.08496094 -643.60588074 92.88472748 C-641.16123825 92.99286754 -638.7166568 93.10227819 -636.27209473 93.21221924 C-598.3027398 94.91506181 -560.35856088 95.19487373 -522.35642242 95.24453354 C-518.70910463 95.24987679 -515.06180132 95.25798827 -511.41448975 95.26651001 C-468.81059685 95.35132677 -426.24476203 94.40325549 -383.75 91.1875 C-382.61127441 91.10351959 -381.47254883 91.01953918 -380.29931641 90.93301392 C-287.20623679 84.03607787 -194.50219828 68.66049853 -97 37 C-96.26803406 36.75852234 -95.53606812 36.51704468 -94.78192139 36.26824951 C-66.45651646 26.9071097 -38.80673917 16.18500867 -11.39599609 4.41845703 C-10.70929337 4.12413284 -10.02259064 3.82980865 -9.31507874 3.52656555 C-7.44212068 2.72301277 -5.57026825 1.91688435 -3.69848633 1.1105957 C-1 0 -1 0 0 0 Z " fill="#01B4EF" transform="translate(1535,0)"/>
<path d="M0 0 C0 139.26 0 278.52 0 422 C-29.5228346 434.99004722 -29.5228346 434.99004722 -43.6875 440.375 C-44.90750702 440.84107162 -44.90750702 440.84107162 -46.15216064 441.31655884 C-133.04294402 474.45517683 -223.70832035 495.04923672 -768.47565079 507.6122551 C-771.92541676 507.44370985 -775.37519694 507.27545745 -778.82498252 507.10731423 C-782.26158172 506.9398058 -785.69817436 506.77216329 -789.13476562 506.60449219 C-790.15115911 506.55491541 -790.15115911 506.55491541 -791.18808579 506.50433707 C-799.71135675 506.08843724 -808.23436509 505.66754964 -816.75714588 505.24170303 C-916.23161171 500.27918684 -1015.96068214 497.11934794 -1494 592 C-1495.3036373 592.59879314 -1496.60735138 593.19741918 -1497.91113281 593.79589844 C-1501.98625202 595.66819522 -1506.05649637 597.55087738 -1510.125 599.4375 C-1510.75970215 599.73109406 -1511.3944043 600.02468811 -1512.04833984 600.32717896 C-1518.61660621 603.37104893 -1525.08367385 606.45923775 -1531.32373047 610.13696289 C-1533 611 -1533 611 -1535 611 C-1535 564.47 -1535 517.94 -1535 470 C-1522.94624893 463.65592049 -1510.99491623 457.45927411 -1498.625 451.8125 C-1497.8440799 451.45482544 -1497.06315979 451.09715088 -1496.25857544 450.7286377 C-1420.47838741 416.10116564 -1340.17109933 391.97362801 -1005.80071163 358.68632013 C-1001.20553647 358.68972521 -996.61052604 358.67991609 -992.01538086 358.66381836 C-914.94159409 358.39793058 -837.99814458 362.42302954 -761.04064941 366.26147461 C-742.96499616 367.16277323 -724.88885518 368.05430568 -706.8125 368.94140625 C-705.85237503 368.98854531 -704.89225006 369.03568437 -703.9030304 369.08425188 C-674.13031062 370.54496549 -644.35875904 371.93752152 -614.56548309 372.91516876 C-612.06742951 372.99777035 -609.5695085 373.08364756 -607.07159424 373.17034912 C-580.52499167 374.08122218 -553.98036544 374.18758949 -527.41992188 374.18530273 C-522.74833267 374.18522188 -518.07684239 374.19212199 -513.40527344 374.20581055 C-414.98388392 374.4892355 -315.95718163 368.30632646 -219.40771484 348.25057983 C-218.215896 348.00593491 -218.215896 348.00593491 -217 347.75634766 C-216.29875 347.61025055 -215.5975 347.46415344 -214.875 347.31362915 C-213 347 -213 347 -210 347 C-210 301.46 -210 255.92 -210 209 C-223.86 211.64 -237.72 214.28 -252 217 C-259.41464872 218.27040797 -266.81179233 219.52285948 -274.25 220.625 C-275.62273071 220.83112411 -275.62273071 220.83112411 -277.02319336 221.04141235 C-319.80021233 227.42777072 -362.84600829 231.3118672 -406 234 C-406.91823547 234.05822937 -407.83647095 234.11645874 -408.78253174 234.17645264 C-481.74690268 238.77341489 -555.19003112 237.41662885 -628.19921875 234.73828125 C-629.05936931 234.70694383 -629.91951986 234.67560641 -630.80573559 234.64331937 C-674.30292408 233.05744751 -717.77107273 230.91753979 -761.24188232 228.73852539 C-779.20777297 227.83804387 -797.17399869 226.94427654 -815.140625 226.05859375 C-816.09659388 226.01145469 -817.05256275 225.96431563 -818.03750038 225.91574812 C-848.46004353 224.41716169 -878.88096184 223.04159316 -909.32623672 222.08483124 C-911.92220818 222.00246812 -914.51804028 221.91662024 -917.11386108 221.82965088 C-943.0339224 220.96822967 -968.94694874 220.80146831 -994.88009262 220.81152344 C-998.10753284 220.81251382 -1001.33496836 220.81150993 -1004.56240845 220.81030273 C-1034.30912804 220.80616053 -1064.01372977 221.00795234 -1093.72183228 222.69511414 C-1101.17724598 223.0943158 -1108.48843956 223 -1116 223 C-1116 176.8 -1116 130.6 -1116 83 C-1112.81787092 81.40893546 -1109.34260067 81.65509891 -1105.83984375 81.5 C-1104.58161804 81.43949966 -1104.58161804 81.43949966 -1103.29797363 81.3777771 C-1100.51138061 81.24610775 -1097.72451986 81.12228553 -1094.9375 81 C-1093.97119659 80.95675598 -1093.00489319 80.91351196 -1092.00930786 80.86895752 C-1023.4190881 77.81925118 -954.82126864 78.70255438 -886.23046875 81.2578125 C-884.96086961 81.30494892 -884.96086961 81.30494892 -883.665622 81.3530376 C-854.31848787 82.44476682 -824.98430623 83.75058182 -795.65234375 85.19140625 C-794.67788079 85.23926561 -793.70341784 85.28712496 -792.6994257 85.3364346 C-778.78264078 86.02071861 -764.86637604 86.71534362 -750.95019531 87.41178894 C-733.97620456 88.26091833 -717.0019687 89.10504823 -700.02734375 89.94140625 C-698.59544075 90.01203199 -698.59544075 90.01203199 -697.13461041 90.08408451 C-666.30160075 91.60364723 -635.47049238 92.93977124 -604.6148777 93.91653633 C-601.95970277 94.00128624 -599.30463645 94.08891672 -596.64958191 94.17735291 C-584.64110468 94.57956879 -584.64110468 94.57956879 -572.62890625 94.83984375 C-571.26953697 94.86110573 -571.26953697 94.86110573 -569.88270569 94.88279724 C-475.37842423 96.20964286 -380.89271844 93.96857896 -8.56835938 2.84228516 C-7.71951172 2.46378418 -6.87066406 2.0852832 -5.99609375 1.6953125 C-4.90059204 1.2005542 -4.90059204 1.2005542 -3.78295898 0.69580078 C-2 0 -2 0 0 0 Z " fill="#01B4EF" transform="translate(1535,559)"/>
<path d="M0 0 C0 46.53 0 93.06 0 141 C-13.86 144.63 -27.72 148.26 -42 152 C-98.0382486 169.06292826 -153.27803637 189.25960162 -205.1862793 216.68334961 C-208 218 -208 218 -211 218 C-211 171.8 -211 125.6 -211 78 C-150.83006977 46.33161567 -87.83300218 22.35658607 -22.1875 4.6875 C-21.29289063 4.44608276 -20.39828125 4.20466553 -19.4765625 3.95593262 C-16.95884746 3.27992706 -14.43907148 2.61246613 -11.91796875 1.94921875 C-11.17205978 1.74993271 -10.42615082 1.55064667 -9.65763855 1.34532166 C-6.2859558 0.47138586 -3.51276887 0 0 0 Z " fill="#01B4EF" transform="translate(211,672)"/>
</svg>
