<?xml version="1.0" encoding="UTF-8"?>
<svg version="1.1" xmlns="http://www.w3.org/2000/svg" width="4999" height="963">
<path d="M0 0 C0 38.28 0 76.56 0 116 C-15.77614035 123.88807018 -15.77614035 123.88807018 -21.390625 126.10546875 C-22.01032166 126.35143799 -22.63001831 126.59740723 -23.26849365 126.85083008 C-25.2593583 127.63755818 -27.25413734 128.41354709 -29.25 129.1875 C-29.95253906 129.4617984 -30.65507813 129.7360968 -31.37890625 130.01870728 C-58.51996894 140.60437415 -85.99368012 149.97821745 -114 158 C-115.22009766 158.3501416 -116.44019531 158.7002832 -117.69726562 159.06103516 C-187.87624323 178.96665672 -260.3507489 188.32257429 -333 193 C-333.91015869 193.06058594 -334.82031738 193.12117187 -335.75805664 193.18359375 C-365.00472148 195.12349229 -394.2837046 195.20266901 -423.58234406 195.24497986 C-426.46959956 195.24984351 -429.35683279 195.25773482 -432.24407959 195.26623535 C-493.29217448 195.41937052 -554.2344675 192.30830938 -615.18786621 189.27075195 C-631.36705971 188.46465044 -647.54667527 187.66704836 -663.7265625 186.875 C-665.0226997 186.81150274 -665.0226997 186.81150274 -666.34502149 186.7467227 C-705.14673746 184.84730709 -743.96576765 183.00618767 -782.8125 182.375 C-784.94026699 182.33740578 -787.06803391 182.29980803 -789.19580078 182.26220703 C-879.96505469 180.71526885 -971.69535796 184.39611562 -1085.47021484 208.46850586 C-1088 209 -1088 209 -1090 209 C-1089.67 246.29 -1089.34 283.58 -1089 322 C-1070.685 318.04 -1070.685 318.04 -1052 314 C-1043.94072685 312.5233237 -1035.90196486 311.08733289 -1027.8125 309.8125 C-1026.29396423 309.56894272 -1026.29396423 309.56894272 -1024.74475098 309.32046509 C-952.42922971 297.74625913 -879.17279476 294.20555358 -806 295 C-804.73829987 295.0129007 -804.73829987 295.0129007 -803.45111084 295.02606201 C-751.49418896 295.57553647 -699.59421936 298.01929746 -647.7044847 300.56896782 C-645.36295578 300.68399352 -643.02141895 300.79885695 -640.67988014 300.91368103 C-626.45855805 301.61123003 -612.23724184 302.30888548 -598.01699829 303.02813721 C-541.82236741 305.87020077 -485.63967398 308.4280352 -429.35739136 308.25794983 C-426.46938073 308.24973513 -423.58137837 308.24487197 -420.69335938 308.24060059 C-391.75966351 308.19148814 -362.87956628 307.93043374 -334 306 C-332.50046783 305.90171906 -332.50046783 305.90171906 -330.97064209 305.80145264 C-241.26640021 299.88522902 -153.28147169 285.36631041 -4.08300781 230.87841797 C-2 230 -2 230 0 230 C0 268.28 0 306.56 0 346 C-13.53951642 352.76975821 -13.53951642 352.76975821 -19.52734375 355.19140625 C-20.18578781 355.45820694 -20.84423187 355.72500763 -21.52262878 355.99989319 C-23.65810291 356.86133429 -25.79714851 357.71325435 -27.9375 358.5625 C-28.69021179 358.86202576 -29.44292358 359.16155151 -30.21844482 359.47015381 C-106.20503163 389.62790703 -185.65748065 408.08906135 -350.45477295 423.89285278 C-352.25960954 423.96883155 -354.06432846 424.04762929 -355.86895752 424.12838745 C-377.11460014 425.0618848 -398.34370048 425.18766146 -419.60644531 425.18530273 C-423.39132628 425.18522299 -427.17608225 425.19193626 -430.9609375 425.20581055 C-492.27904838 425.42547921 -553.48584948 422.29954685 -614.7097168 419.27075195 C-631.00793338 418.46469683 -647.30660347 417.66782046 -663.60546875 416.875 C-664.90986314 416.81150274 -664.90986314 416.81150274 -666.24060893 416.7467227 C-723.87947596 413.93916334 -723.87947596 413.93916334 -781.5625 412.375 C-782.59835236 412.356651 -783.63420471 412.338302 -784.70144653 412.31939697 C-803.46925146 411.98734261 -822.23003676 411.7847516 -841 412 C-841.79380066 412.00860046 -842.58760132 412.01720093 -843.40545654 412.02606201 C-935.37616653 413.06429933 -1027.36960591 421.85171094 -1139 453 C-1139.69593262 453.21893921 -1140.39186523 453.43787842 -1141.10888672 453.66345215 C-1173.96633117 464.03783822 -1205.74366113 476.51442233 -1237 491 C-1237.99418945 491.45987305 -1238.98837891 491.91974609 -1240.01269531 492.39355469 C-1242.6783853 493.63057423 -1245.34058365 494.87455635 -1248 496.125 C-1248.7532959 496.47916992 -1249.5065918 496.83333984 -1250.28271484 497.19824219 C-1253.24230576 498.60862367 -1256.06740303 500.04084477 -1258.875 501.7421875 C-1261 503 -1261 503 -1263 503 C-1263 388.82 -1263 274.64 -1263 157 C-1181.66673874 114.19302039 -1093.41611725 88.73420237 -648.69200659 70.56896782 C-646.34758493 70.68398051 -644.00315616 70.79884722 -641.65872574 70.91368103 C-627.41885713 71.61134529 -613.17899131 72.30905753 -598.94018555 73.02813721 C-542.66015551 75.87027068 -486.40268665 78.42140775 -430.03476334 78.25794983 C-427.03419244 78.2497519 -424.03362943 78.24487861 -421.03305054 78.24060059 C-391.65279114 78.19250031 -362.32478348 77.97303357 -333 76 C-332.00115784 75.93447937 -331.00231567 75.86895874 -329.97320557 75.80145264 C-240.31734635 69.89869181 -152.45570579 55.02569948 -4.14233398 0.89819336 C-2 -0 -2 -0 0 0 Z " fill="#01B4EF" transform="translate(1263,0)"/>
<path d="M0 0 C0 114.84 0 229.68 0 348 C-20.22454886 356.48126243 -40.32897153 364.77114071 -61 372 C-61.64735107 372.22709656 -62.29470215 372.45419312 -62.96166992 372.68817139 C-144.26731741 401.16818645 -229.56488193 416.04595118 -328.125 422.6875 C-329.09043732 422.74852905 -330.05587463 422.80955811 -331.05056763 422.87243652 C-361.64592774 424.77517295 -392.23065133 425.21303136 -422.875 425.1875 C-423.76637539 425.18693855 -424.65775078 425.18637711 -425.57613754 425.18579865 C-503.80717795 425.12466713 -581.86176227 420.70409126 -659.97533417 416.85332489 C-722.26194813 413.78366292 -784.62447051 411.21320082 -847 412 C-847.84028748 412.00966797 -848.68057495 412.01933594 -849.54632568 412.02929688 C-938.19041835 413.07378136 -1027.16752951 422.11199535 -1253.68701172 498.98828125 C-1255.29987061 499.77525391 -1255.29987061 499.77525391 -1256.9453125 500.578125 C-1258.37641357 501.28050293 -1258.37641357 501.28050293 -1259.83642578 501.99707031 C-1262 503 -1262 503 -1263 503 C-1263 464.72 -1263 426.44 -1263 387 C-1179.01540538 342.79758178 -1088.38968441 317.43254448 -624.37786865 301.68499756 C-490.61905495 308.49974839 -490.61905495 308.49974839 -179.86987305 286.52001953 C-177 286 -177 286 -173 286 C-173 248.38 -173 210.76 -173 172 C-180.59 173.65 -188.18 175.3 -196 177 C-202.93264971 178.22969209 -209.8572392 179.41811102 -216.8125 180.5 C-217.74642578 180.64652008 -218.68035156 180.79304016 -219.64257812 180.94400024 C-257.60045092 186.87372131 -295.66464183 190.5622621 -334 193 C-334.95688721 193.06165344 -335.91377441 193.12330688 -336.8996582 193.18682861 C-365.49348829 195.00291645 -394.10525809 195.20033598 -422.74636459 195.24497986 C-425.40283079 195.24982285 -428.05927217 195.25770595 -430.71572876 195.26623535 C-491.62459353 195.43288476 -552.45297074 192.31084693 -613.26690674 189.27075195 C-629.41060196 188.46391967 -645.55477528 187.66670881 -661.69921875 186.875 C-662.56140935 186.83266849 -663.42359995 186.79033698 -664.31191754 186.7467227 C-686.74830698 185.64587662 -709.18415796 184.60925628 -731.6328125 183.7890625 C-732.68280111 183.75062225 -733.73278973 183.71218201 -734.81459618 183.6725769 C-796.32313729 181.44879436 -857.48655608 182.13595624 -919 184 C-919 145.72 -919 107.44 -919 68 C-880.41919864 65.66176961 -880.41919864 65.66176961 -865.5 65.375 C-864.63812073 65.356651 -863.77624146 65.338302 -862.88824463 65.31939697 C-777.12467036 63.50297173 -691.40887941 68.32552307 -605.78639984 72.64986134 C-573.19787914 74.29558108 -540.60973615 75.83705637 -508 77 C-507.16706043 77.02991783 -506.33412086 77.05983566 -505.4759407 77.0906601 C-479.94340699 78.00051776 -454.42240336 78.20351763 -428.875 78.1875 C-427.91512302 78.18723312 -426.95524605 78.18696625 -425.96628189 78.18669128 C-395.27471549 78.17601791 -364.6399675 77.96841229 -334 76 C-332.97585999 75.93447937 -331.95171997 75.86895874 -330.89654541 75.80145264 C-248.95234416 70.48117035 -167.15913316 58.40378857 -62 24 C-61.32519592 23.76496765 -60.65039185 23.5299353 -59.95513916 23.28778076 C-43.86260436 17.66686334 -16.72496313 0 0 0 Z " fill="#01B4EF" transform="translate(1263,460)"/>
<path d="M0 0 C0.89502731 -0.00701431 1.79005463 -0.01402863 2.71220398 -0.02125549 C5.5881357 -0.0386686 8.46386123 -0.04510887 11.33984375 -0.046875 C12.32432495 -0.04754974 13.30880615 -0.04822449 14.32312012 -0.04891968 C29.52826328 -0.03237016 44.27312278 0.5438793 59.27734375 3.203125 C60.22206543 3.3587793 61.16678711 3.51443359 62.14013672 3.67480469 C121.91567196 13.70916326 182.5621974 48.08380035 220.27734375 96.203125 C216.80677212 103.75867568 210.15560452 109.38224063 204.32421875 115.13720703 C201.71739753 117.72170958 199.21749134 120.34441842 196.83984375 123.140625 C193.34023878 127.24739035 189.51752366 130.99037306 185.68212891 134.77880859 C182.32689818 138.10878829 179.180165 141.54234989 176.1171875 145.14453125 C173.32105359 148.2731142 170.31408191 151.18710109 167.32836914 154.13256836 C164.0669041 157.36708378 161.02519476 160.71811482 158.046875 164.2109375 C154.63811516 168.04861414 150.94275046 171.61252251 147.27734375 175.203125 C144.54753876 172.52368541 141.89327345 169.81010186 139.33203125 166.96875 C132.76067726 159.68419385 126.08199822 153.19070704 118.27734375 147.203125 C117.30667969 146.40519531 116.33601563 145.60726562 115.3359375 144.78515625 C83.37086822 118.73841726 41.51119701 108.68701644 0.92675781 112.51953125 C-31.14553943 116.75336222 -63.13381526 132.50144784 -83.25390625 158.38671875 C-109.63465836 193.61523177 -117.82524073 237.23401248 -112.13085938 280.39233398 C-107.00274245 315.65383573 -91.02866943 349.38450695 -62.36816406 371.47729492 C-30.7350059 395.06363606 8.2762818 401.81510155 46.89697266 396.5625 C66.12999194 393.65880724 84.25770285 387.57626057 101.27734375 378.203125 C101.90205566 377.86442383 102.52676758 377.52572266 103.17041016 377.17675781 C113.83663936 371.33156429 123.03563866 364.06960839 132.27734375 356.203125 C133.11523438 355.50832031 133.953125 354.81351563 134.81640625 354.09765625 C138.71351948 350.80993717 142.10426901 347.28826977 145.40234375 343.40234375 C147.62703479 340.79296656 149.91722884 338.24845152 152.21484375 335.703125 C152.98699219 334.8471875 153.75914062 333.99125 154.5546875 333.109375 C155.12316406 332.4803125 155.69164063 331.85125 156.27734375 331.203125 C159.50129545 332.61851843 161.63401167 334.31727428 164.08984375 336.828125 C164.71503906 337.45976563 165.34023437 338.09140625 165.984375 338.7421875 C167.87825585 340.77480238 169.69593677 342.84069733 171.5078125 344.9453125 C175.39413335 349.41071229 179.55567815 353.55698115 183.77734375 357.703125 C188.55515552 362.39546607 193.15029789 367.14003186 197.51806641 372.21679688 C200.5987184 375.69503509 203.90958006 378.94002856 207.21484375 382.203125 C208.24061523 383.22212891 208.24061523 383.22212891 209.28710938 384.26171875 C210.94821534 385.91120859 212.61162888 387.5582918 214.27734375 389.203125 C214.36709473 388.50977051 214.4568457 387.81641602 214.54931641 387.10205078 C217.94351492 361.53354915 223.58177977 339.526927 240.27734375 319.203125 C240.96441406 318.35105469 241.65148438 317.49898437 242.359375 316.62109375 C262.30120114 293.12747669 293.25919694 280.46649728 322.77734375 274.453125 C323.74849121 274.25444824 324.71963867 274.05577148 325.72021484 273.85107422 C341.91353271 270.7372825 358.00258938 269.7925655 374.46484375 269.828125 C375.89908691 269.82894073 375.89908691 269.82894073 377.36230469 269.82977295 C404.57967852 269.90043953 433.28901591 272.54034905 459.27734375 281.203125 C458.77153934 264.52902111 457.92737917 248.84415368 446.11328125 235.890625 C424.97762013 216.46380456 392.24892239 217.98256176 365.47418213 219.08660889 C334.10532291 220.75035329 302.84291767 230.82223036 274.17407227 243.17163086 C269.45578288 245.203125 269.45578288 245.203125 267.27734375 245.203125 C247.42847027 186.8664518 247.42847027 186.8664518 240.27734375 165.203125 C247.73188665 161.35922445 255.19953529 157.84048452 263.02734375 154.828125 C264.50098389 154.25904419 264.50098389 154.25904419 266.00439453 153.6784668 C289.00536103 144.90029372 312.18427281 138.1408056 336.46484375 133.953125 C337.32851563 133.80198242 338.1921875 133.65083984 339.08203125 133.49511719 C357.48600502 130.5195842 375.97970896 129.82296626 394.58984375 129.890625 C395.66306885 129.89278015 396.73629395 129.8949353 397.84204102 129.89715576 C446.12760786 130.05255057 494.30919056 139.85823711 529.85888672 174.76611328 C558.39482017 203.67532228 565.63374951 242.20661815 565.50439453 281.30444336 C565.50382945 283.71056615 565.50414886 286.11668929 565.50527954 288.52281189 C565.50579125 294.34213708 565.49718123 300.16139555 565.48440422 305.98070555 C565.47002148 312.76048065 565.46710649 319.54024671 565.46482788 326.32003493 C565.46046593 338.40762516 565.44719786 350.49518819 565.42822266 362.58276367 C565.40982481 374.31485866 565.39568749 386.04694621 565.38720703 397.77905273 C565.38641886 398.86638184 565.38641886 398.86638184 565.38561477 399.97567718 C565.38300443 403.61273101 565.38047707 407.24978488 565.37799096 410.88683879 C565.35730525 440.99229133 565.32046096 471.09769384 565.27734375 501.203125 C532.27734375 501.203125 499.27734375 501.203125 465.27734375 501.203125 C464.61734375 488.003125 463.95734375 474.803125 463.27734375 461.203125 C462.94734375 460.543125 462.61734375 459.883125 462.27734375 459.203125 C461.86411865 459.64027832 461.45089355 460.07743164 461.02514648 460.52783203 C456.7739162 464.91593119 452.35579339 468.6008605 447.33984375 472.078125 C446.60258057 472.59205811 445.86531738 473.10599121 445.10571289 473.63549805 C405.91764272 500.53681059 356.67275178 512.05886052 309.69726562 503.74658203 C279.46041109 497.88720646 251.90163833 483.16801718 234.07421875 457.46875 C228.5645722 449.2400571 224.67224473 440.82295462 221.46875 431.46875 C220.39275743 428.12065463 220.39275743 428.12065463 218.27734375 425.203125 C217.81996826 425.67097412 217.36259277 426.13882324 216.89135742 426.62084961 C208.37001348 435.31110238 199.95847257 443.79990884 190.27734375 451.203125 C188.776875 452.39421875 188.776875 452.39421875 187.24609375 453.609375 C128.28953623 500.22261027 52.07680651 516.28832961 -21.72265625 508.203125 C-84.59510462 500.57065782 -144.95826346 471.57997405 -184.66015625 421.140625 C-186.39744531 418.8618086 -188.07183881 416.54519895 -189.72265625 414.203125 C-190.20250977 413.52459473 -190.68236328 412.84606445 -191.17675781 412.14697266 C-217.89851242 373.98405628 -233.8906076 329.73514429 -237.72265625 283.203125 C-237.83222656 282.09066406 -237.94179687 280.97820312 -238.0546875 279.83203125 C-243.42316559 216.77030857 -229.387931 148.39594878 -190.72265625 97.203125 C-190.27180664 96.59968262 -189.82095703 95.99624023 -189.35644531 95.37451172 C-150.42788552 43.55725558 -93.41982467 11.65030285 -29.47265625 2.453125 C-19.65566535 1.08812472 -9.91812383 0.05243426 0 0 Z M334.52734375 361.953125 C327.81554753 369.95211501 325.58271505 379.92993208 326.27734375 390.203125 C327.50827797 400.9298375 331.32959379 409.51394242 339.75 416.44921875 C356.4073506 428.00895665 377.2834407 427.67749221 396.453125 424.2421875 C412.93317511 420.93500011 427.38605931 413.05522893 439.27734375 401.203125 C440.04949219 400.45417969 440.82164063 399.70523438 441.6171875 398.93359375 C452.7982601 387.40848814 460.4931956 371.43887651 460.27734375 355.203125 C393.91386028 337.60087968 393.91386028 337.60087968 334.52734375 361.953125 Z " fill="#01B4EF" transform="translate(3768.72265625,258.796875)"/>
<path d="M0 0 C0.85183868 0.00215515 1.70367737 0.0043103 2.58132935 0.00653076 C32.03424802 0.12567158 59.90504814 5.14263582 86.875 17.3125 C87.94935303 17.79589844 87.94935303 17.79589844 89.04541016 18.2890625 C107.42980941 26.70508895 123.10254571 38.59347114 137.875 52.3125 C138.51824219 52.89 139.16148438 53.4675 139.82421875 54.0625 C174.35104483 86.49021087 190.2277933 137.19071236 191.875 183.3125 C191.91625 184.42625 191.9575 185.54 192 186.6875 C192.1464926 194.89108544 191.62251541 203.01080477 191 211.1875 C190.92160889 212.24565918 190.84321777 213.30381836 190.76245117 214.39404297 C190.63640503 215.92762451 190.63640503 215.92762451 190.5078125 217.4921875 C190.43449707 218.39694824 190.36118164 219.30170898 190.28564453 220.23388672 C189.7428208 224.30345109 188.76563128 228.30465922 187.875 232.3125 C99.105 232.3125 10.335 232.3125 -81.125 232.3125 C-70.0016026 257.73740833 -55.57742171 273.46369043 -30.14453125 283.8125 C8.7452652 298.79980476 55.44422714 293.97939124 92.98632812 277.37890625 C104.14986203 272.27859976 115.49838202 266.15020285 125.140625 258.51953125 C126.875 257.3125 126.875 257.3125 129.875 257.3125 C131.49389648 259.39770508 131.49389648 259.39770508 133.24609375 262.33203125 C133.89650635 263.40727051 134.54691895 264.48250977 135.21704102 265.59033203 C135.91555645 266.76853743 136.61404207 267.94676051 137.3125 269.125 C138.03640986 270.32742517 138.76159927 271.52908088 139.48803711 272.72998047 C140.58574829 274.54499743 141.68267336 276.3604353 142.77558899 278.17834473 C145.76059411 283.1430856 148.82635218 288.05116783 151.9375 292.9375 C152.88305086 294.43083868 153.8283584 295.92433146 154.7734375 297.41796875 C156.45708512 300.07603717 158.14218124 302.73316691 159.82910156 305.38916016 C161.91217341 308.67280339 163.98781589 311.96105231 166.0625 315.25 C166.7232251 316.28785645 167.3839502 317.32571289 168.06469727 318.39501953 C168.67627686 319.36681152 169.28785645 320.33860352 169.91796875 321.33984375 C170.73817505 322.63523071 170.73817505 322.63523071 171.57495117 323.95678711 C172.76869419 326.11987187 173.42457185 327.8984703 173.875 330.3125 C136.86670414 361.3583482 86.2971988 376.46247219 38.875 380.3125 C37.59367187 380.42335938 36.31234375 380.53421875 34.9921875 380.6484375 C-20.39772369 384.78869349 -79.2549525 374.81270655 -124.125 340.3125 C-125.0325 339.62929688 -125.94 338.94609375 -126.875 338.2421875 C-146.04366476 323.23814336 -161.03732355 304.89852673 -172.125 283.3125 C-172.47014648 282.6520166 -172.81529297 281.9915332 -173.17089844 281.31103516 C-197.52650981 234.2349544 -199.2131156 174.78561909 -183.3125 124.75 C-182.6052762 122.59527104 -181.87465393 120.45300123 -181.125 118.3125 C-183.79045164 117.6612817 -186.45719056 117.01642839 -189.125 116.375 C-189.86878906 116.19259766 -190.61257813 116.01019531 -191.37890625 115.82226562 C-217.22628176 109.64137148 -245.19415951 111.41867494 -268.125 125.3125 C-286.49398427 137.20608693 -295.53327511 156.91396555 -300.125 177.62890625 C-302.81563621 190.84138652 -303.28176752 203.91929124 -303.33032227 217.3503418 C-303.33991931 219.04652637 -303.3499304 220.74270865 -303.36032104 222.43888855 C-303.38717857 227.01245663 -303.40829087 231.58603483 -303.42832303 236.15963721 C-303.45030181 240.95091036 -303.47763191 245.74215302 -303.50437927 250.53340149 C-303.5541463 259.59242285 -303.59914395 268.65146127 -303.64240164 277.7105158 C-303.70118069 289.96183727 -303.76738092 302.21311854 -303.83315182 314.46440411 C-303.93647614 333.74707558 -304.02993153 353.02978196 -304.125 372.3125 C-342.075 372.3125 -380.025 372.3125 -419.125 372.3125 C-419.125 252.5225 -419.125 132.7325 -419.125 9.3125 C-384.475 9.3125 -349.825 9.3125 -314.125 9.3125 C-313.00192308 21.66634615 -313.00192308 21.66634615 -312.84375 26.25 C-312.78767578 27.74660156 -312.78767578 27.74660156 -312.73046875 29.2734375 C-312.66015625 31.29947917 -312.58984375 33.32552083 -312.51953125 35.3515625 C-312.26921049 42.0325373 -311.79933436 48.66081349 -311.125 55.3125 C-310.59132812 54.70664062 -310.05765625 54.10078125 -309.5078125 53.4765625 C-285.34007028 26.29830568 -254.41536216 6.60594187 -217.125 4.3125 C-194.53409918 3.34157062 -172.77308652 4.25178304 -151.125 11.3125 C-149.62791703 15.26422644 -150.60885385 18.35457593 -151.57202148 22.37597656 C-151.73768616 23.07881775 -151.90335083 23.78165894 -152.07403564 24.50579834 C-152.62268062 26.82374312 -153.18430026 29.13833512 -153.74609375 31.453125 C-154.12947025 33.06147464 -154.51203286 34.67001849 -154.89381409 36.27874756 C-155.90004568 40.50901553 -156.91731233 44.73655478 -157.93688965 48.96362305 C-158.97566416 53.27884438 -160.00399443 57.59655165 -161.03320312 61.9140625 C-163.05358106 70.38267813 -165.0856221 78.84843989 -167.125 87.3125 C-166.72210251 86.70364456 -166.31920502 86.09478912 -165.90409851 85.46748352 C-165.3707338 84.66392929 -164.83736908 83.86037506 -164.2878418 83.0324707 C-163.76119431 82.23799026 -163.23454681 81.44350983 -162.69194031 80.62495422 C-160.56243557 77.48228044 -158.29278542 74.4756292 -155.9375 71.5 C-155.46755615 70.90598389 -154.9976123 70.31196777 -154.51342773 69.69995117 C-122.28712613 29.42646255 -76.97017974 7.03258173 -26.0160675 0.96472168 C-17.35328622 0.02599226 -8.7053225 -0.03990673 0 0 Z M-37.125 96.3125 C-38.47658203 96.94091797 -38.47658203 96.94091797 -39.85546875 97.58203125 C-55.88448916 105.6081064 -67.75649004 118.68875415 -75.5 134.6875 C-75.80977783 135.32187988 -76.11955566 135.95625977 -76.4387207 136.60986328 C-79.66733435 143.7207201 -81.04539137 150.51396764 -83.125 158.3125 C-27.355 158.3125 28.415 158.3125 85.875 158.3125 C79.72402638 133.70860554 67.25344441 112.29246748 45.25 98.625 C31.96602777 91.20359715 17.32091708 87.91603363 2.1875 88 C1.13530273 88.00491455 0.08310547 88.0098291 -1.00097656 88.01489258 C-13.97862279 88.20901969 -25.37476445 90.64053291 -37.125 96.3125 Z " fill="#01B4EF" transform="translate(4789.125,387.6875)"/>
<path d="M0 0 C37.95 0 75.9 0 115 0 C115.33 64.68 115.66 129.36 116 196 C120.29 192.04 124.58 188.08 129 184 C131.65700323 181.86804796 134.21420744 179.86131601 137 177.9375 C137.70092773 177.45128174 138.40185547 176.96506348 139.12402344 176.46411133 C175.03931995 152.18715959 220.37877311 143.24556194 263.13134766 150.51953125 C305.29746291 158.67315011 341.33249899 180.45989541 367 215 C367.42039551 215.56009766 367.84079102 216.12019531 368.27392578 216.69726562 C393.90394751 251.33188014 403.50828257 295.72603432 403.3125 338.125 C403.31034485 338.97306213 403.3081897 339.82112427 403.30596924 340.69488525 C403.15820836 377.11324502 395.57962925 411.90461974 378 444 C377.66419922 444.62036133 377.32839844 445.24072266 376.98242188 445.87988281 C358.0119782 480.49104333 324.91477255 508.16479017 287.12695312 519.89160156 C276.26553006 523.04205358 265.26654426 525.82289836 254 527 C252.99839844 527.10957031 251.99679688 527.21914063 250.96484375 527.33203125 C207.79278349 531.34430451 162.05693759 521.89380226 127.95678711 494.00683594 C110.79009283 479.58018566 110.79009283 479.58018566 108 474 C107.94465088 475.14476807 107.88930176 476.28953613 107.83227539 477.46899414 C107.6249599 481.73885391 107.41333259 486.00849117 107.20043945 490.27807617 C107.10910352 492.12176875 107.01891817 493.96551871 106.92993164 495.80932617 C106.8014088 498.46809765 106.66867303 501.12663143 106.53515625 503.78515625 C106.49656998 504.60210464 106.4579837 505.41905304 106.41822815 506.26075745 C106.37826218 507.04103806 106.3382962 507.82131866 106.29711914 508.62524414 C106.26380997 509.30253067 106.23050079 509.9798172 106.19618225 510.67762756 C105.93246713 513.79944272 105.44306378 516.89855356 105 520 C70.35 520 35.7 520 0 520 C0 348.4 0 176.8 0 0 Z M135.5703125 273.98046875 C118.61202895 293.90258605 111.13009345 320.01879013 113 346 C115.32800456 371.19528341 124.51364563 393.39575834 143.703125 410.39453125 C158.43527485 422.20842737 177.10622478 429.25785498 196 430 C196.85980469 430.0515625 197.71960937 430.103125 198.60546875 430.15625 C222.26494917 430.93946039 243.72362219 423.24070108 261.8125 408.1875 C278.99248837 391.99377023 288.60455735 368.10640139 289.30078125 344.703125 C289.3202067 342.5521675 289.32376523 340.40101571 289.3125 338.25 C289.30404053 336.54384521 289.30404053 336.54384521 289.29541016 334.80322266 C288.93895687 309.96795749 280.74624059 287.77683755 263 270 C262.31421875 269.30261719 261.6284375 268.60523438 260.921875 267.88671875 C242.98606542 250.78127072 219.30112724 246.30296027 195.3203125 246.6875 C172.2302145 247.51932581 151.56819334 257.30629266 135.5703125 273.98046875 Z " fill="#01B4EF" transform="translate(2214,240)"/>
<path d="M0 0 C107.58 0 215.16 0 326 0 C326 33.66 326 67.32 326 102 C258.35 102 190.7 102 121 102 C121 138.96 121 175.92 121 214 C182.05 214 243.1 214 306 214 C306 247 306 280 306 314 C245.28 314 184.56 314 122 314 C122 372.74 122 431.48 122 492 C81.74 492 41.48 492 0 492 C0 329.64 0 167.28 0 0 Z " fill="#01B4EF" transform="translate(1533,268)"/>
<path d="M0 0 C1.10306992 -0.00151062 1.10306992 -0.00151062 2.22842407 -0.00305176 C18.95629106 0.01243469 34.26056487 2.13155592 50.1875 7.25 C50.1875 6.59 50.1875 5.93 50.1875 5.25 C88.1375 5.25 126.0875 5.25 165.1875 5.25 C165.1875 125.04 165.1875 244.83 165.1875 368.25 C127.2375 368.25 89.2875 368.25 50.1875 368.25 C49.8575 253.41 49.5275 138.57 49.1875 20.25 C42.2575 49.62 35.3275 78.99 28.1875 109.25 C27.5275 111.23 26.8675 113.21 26.1875 115.25 C25.52741943 115.10377197 24.86733887 114.95754395 24.18725586 114.80688477 C21.16708824 114.13941369 18.1460585 113.47592664 15.125 112.8125 C14.08666016 112.58240234 13.04832031 112.35230469 11.97851562 112.11523438 C-14.78725926 106.25225511 -43.00141515 106.62512346 -66.8125 121.25 C-85.14201206 133.38842687 -94.43329662 153.69849657 -98.74609375 174.6171875 C-101.38693309 188.42122985 -101.96609478 202.1069255 -102.01782227 216.12597656 C-102.02742226 217.79275239 -102.03743351 219.45952589 -102.04782104 221.126297 C-102.07464668 225.61509763 -102.09577588 230.10390854 -102.11582303 234.59274387 C-102.1378219 239.29726045 -102.16514201 244.00174619 -102.19187927 248.70623779 C-102.24161952 257.59877059 -102.28662691 266.49132069 -102.32990164 275.38388705 C-102.38871061 287.41178903 -102.45489615 299.43965032 -102.52065182 311.46751595 C-102.62393416 330.39498314 -102.71741736 349.32248572 -102.8125 368.25 C-140.7625 368.25 -178.7125 368.25 -217.8125 368.25 C-217.8125 248.46 -217.8125 128.67 -217.8125 5.25 C-183.1625 5.25 -148.5125 5.25 -112.8125 5.25 C-112.2112312 8.85761277 -111.68633757 12.02433363 -111.51538086 15.60302734 C-111.4554319 16.80359268 -111.4554319 16.80359268 -111.39427185 18.02841187 C-111.35568558 18.87239532 -111.3170993 19.71637878 -111.27734375 20.5859375 C-111.21287804 21.90496567 -111.21287804 21.90496567 -111.14710999 23.25064087 C-111.01144328 26.04194644 -110.88065063 28.8334556 -110.75 31.625 C-110.65852551 33.52475513 -110.56673207 35.42449494 -110.47460938 37.32421875 C-110.25021337 41.9659765 -110.03018648 46.60792295 -109.8125 51.25 C-108.04682193 49.32426739 -106.28120575 47.39847809 -104.515625 45.47265625 C-104.01820801 44.93016235 -103.52079102 44.38766846 -103.00830078 43.82873535 C-102.52248535 43.29880981 -102.03666992 42.76888428 -101.53613281 42.22290039 C-101.06402878 41.70803574 -100.59192474 41.19317108 -100.10551453 40.66270447 C-99.04542018 39.5044808 -97.98909422 38.34280907 -96.93383789 37.18017578 C-72.67526061 10.77516572 -34.64794046 0.03283021 0 0 Z " fill="#01B4EF" transform="translate(2853.8125,391.75)"/>
<path d="M0 0 C0.92586914 0.17160645 1.85173828 0.34321289 2.80566406 0.52001953 C28.78836863 5.48664857 54.59589557 14.67987471 75 32 C75.85464844 32.71671875 76.70929687 33.4334375 77.58984375 34.171875 C95.99468508 50.16622093 108.12738683 69.69589322 115.3125 92.875 C115.65800903 93.96772217 115.65800903 93.96772217 116.01049805 95.08251953 C120.96297349 112.08995631 121.42762206 129.16786443 121.34057617 146.73901367 C121.33972797 149.1654306 121.3402088 151.59184829 121.34190369 154.01826477 C121.34266936 159.87183409 121.32979327 165.72525339 121.31059071 171.5787886 C121.28896833 178.40148409 121.28463999 185.22415963 121.2812262 192.04688457 C121.27469143 204.2099173 121.25481192 216.372889 121.22631836 228.53588867 C121.19870015 240.33764342 121.17750479 252.13938148 121.16479492 263.94116211 C121.16400675 264.67097128 121.16321858 265.40078044 121.16240653 266.15270504 C121.15849087 269.81464441 121.15469988 273.47658389 121.15097082 277.13852346 C121.11996774 307.42573569 121.06471545 337.71283567 121 368 C88 368 55 368 21 368 C20.01 347.21 20.01 347.21 19 326 C14.71 329.63 10.42 333.26 6 337 C-19.89160609 356.52481771 -50.87372901 368.2562882 -83 372 C-83.93070313 372.11085938 -84.86140625 372.22171875 -85.8203125 372.3359375 C-120.62439788 375.84479624 -160.32366424 369.94128088 -188.1875 347.25 C-189.79798632 345.84052175 -191.40322253 344.42499012 -193 343 C-194.03125 342.21625 -195.0625 341.4325 -196.125 340.625 C-217.78995871 320.84395074 -227.46689923 292.16340452 -228.9140625 263.57128906 C-229.95043037 232.56269141 -220.28528336 203.66362991 -199.0625 180.8125 C-192.07369402 173.46115305 -184.73297584 167.23655449 -176 162 C-175.34386719 161.60216309 -174.68773437 161.20432617 -174.01171875 160.79443359 C-154.25605678 149.05191003 -131.72535266 142.04932983 -109 139 C-107.72406982 138.82557373 -106.44813965 138.65114746 -105.13354492 138.47143555 C-93.2268165 136.94303807 -81.43155103 136.64027525 -69.4375 136.6875 C-67.98975189 136.69023422 -67.98975189 136.69023422 -66.51275635 136.69302368 C-51.4716686 136.74073321 -36.84160325 137.373759 -22 140 C-20.33420898 140.28931396 -20.33420898 140.28931396 -18.63476562 140.58447266 C-7.2816883 142.58934434 3.91317539 144.8174935 15 148 C14.65954089 130.92597551 13.57931852 113.91671506 0.5 101.3125 C-13.97884736 89.70752594 -32.98487051 85.95714589 -51.14453125 85.76171875 C-51.90347183 85.7519249 -52.66241241 85.74213104 -53.4443512 85.73204041 C-71.99770264 85.54239415 -89.7634363 86.20253461 -108 90 C-109.00595215 90.20898926 -110.0119043 90.41797852 -111.04833984 90.63330078 C-131.31597468 94.99949289 -151.07317501 101.77109576 -170.10327148 109.96850586 C-174.82156087 112 -174.82156087 112 -177 112 C-177.2962326 111.12160965 -177.59246521 110.2432193 -177.89767456 109.33821106 C-180.69172303 101.05410538 -183.4871146 92.77045442 -186.28400993 84.48730946 C-187.72181839 80.22901223 -189.15910972 75.97054193 -190.59521484 71.71166992 C-191.981546 67.60046926 -193.36924126 63.48973137 -194.75787735 59.3793087 C-195.28702369 57.81222574 -195.81568106 56.24497759 -196.34383774 54.67756081 C-197.08453341 52.47966753 -197.82697657 50.2823718 -198.56982422 48.08520508 C-198.99174042 46.83500076 -199.41365662 45.58479645 -199.84835815 44.29670715 C-200.56111494 42.25635894 -201.31827302 40.23022824 -202.14407349 38.23295593 C-203.11842425 35.69105276 -203.15425092 33.69939114 -203 31 C-139.86603239 3.64648612 -68.99339015 -13.18877749 0 0 Z M-107 226 C-107.57492187 226.53367187 -108.14984375 227.06734375 -108.7421875 227.6171875 C-115.43882991 234.58036294 -118.09763082 244.50191582 -118 254 C-117.36318793 264.85290356 -114.33013423 274.236022 -106.3125 281.875 C-93.38706654 292.18074714 -75.86046819 294.31189617 -59.86425781 292.79785156 C-37.11189562 290.23106741 -16.03535573 281.63939483 -0.4921875 264.18359375 C9.1470098 251.91403922 16.33437189 237.87283031 16 222 C-48.16160053 204.84133678 -48.16160053 204.84133678 -107 226 Z " fill="#01B4EF" transform="translate(2057,392)"/>
<path d="M0 0 C0.99418945 0.19867676 1.98837891 0.39735352 3.01269531 0.60205078 C45.11007483 9.30982916 80.04527771 28.2523586 110 59 C108.76751873 62.52910489 107.55771197 64.78087432 104.8125 67.3125 C101.64206198 70.34566132 98.74762171 73.51116497 95.8828125 76.83203125 C93.7842468 79.24842951 91.645603 81.62529024 89.5 84 C86.23295665 87.62023723 83.00479224 91.26983565 79.8046875 94.94921875 C77.77041859 97.26088797 75.6977769 99.5353143 73.625 101.8125 C70.55253227 105.21083552 67.61557378 108.67590523 64.75 112.25 C59.17737017 119.14897512 53.08596011 125.55659556 47 132 C46.56357178 131.62270752 46.12714355 131.24541504 45.67749023 130.85668945 C17.80842057 106.85215087 -11.74818901 94.50289332 -49 97 C-69.23057588 99.06710346 -90.02406557 109.85967699 -102.96948242 125.55541992 C-119.89134098 147.12312716 -125.71301528 174.76152688 -122.5 201.6875 C-119.19292701 225.20974458 -109.26190029 246.7702103 -90.33203125 261.71484375 C-69.09165272 276.86635659 -43.04212934 280.37400874 -17.72265625 276.47631836 C1.66732908 273.15414324 20.27818357 265.20149115 35 252 C36.29357422 250.88431641 36.29357422 250.88431641 37.61328125 249.74609375 C42.51307082 245.45605577 46.90581358 241.06386215 51 236 C54.33578513 237.45155894 56.52498603 239.27925938 59.08203125 241.8515625 C59.84966797 242.62113281 60.61730469 243.39070312 61.40820312 244.18359375 C62.20162109 244.98925781 62.99503906 245.79492188 63.8125 246.625 C64.59431641 247.40746094 65.37613281 248.18992187 66.18164062 248.99609375 C69.64327982 252.48376031 73.01157267 255.99790026 76.21777344 259.72216797 C80.27579816 264.38567403 84.61220447 268.73831906 88.99609375 273.09375 C89.82963882 273.92588013 90.6631839 274.75801025 91.52198792 275.61535645 C94.15813262 278.24594935 96.79775105 280.87302441 99.4375 283.5 C101.23655979 285.29403855 103.0353902 287.08830715 104.83398438 288.8828125 C109.22000812 293.25787125 113.60888142 297.63005512 118 302 C116.32770478 306.56015023 113.95325814 309.58891687 110.625 313.0625 C110.09189209 313.62686768 109.55878418 314.19123535 109.00952148 314.77270508 C107.3478931 316.52318799 105.67449972 318.26183672 104 320 C103.49581543 320.53141602 102.99163086 321.06283203 102.47216797 321.61035156 C65.75018229 360.26379464 13.0278213 376.56982389 -39.15234375 378.1875 C-92.29993903 379.20098542 -144.1944823 362.72809684 -183.09765625 325.8359375 C-219.68285844 290.41197628 -237.37846946 241.35256866 -238.28564453 190.9621582 C-238.66582144 140.18089212 -223.61838758 91.07815756 -188 54 C-187.54077148 53.50967285 -187.08154297 53.0193457 -186.60839844 52.51416016 C-156.85243083 20.81928045 -115.63333668 3.61526527 -73 -2 C-72.27385498 -2.1016748 -71.54770996 -2.20334961 -70.79956055 -2.30810547 C-47.96844632 -5.07955523 -22.50525096 -4.52953785 0 0 Z " fill="#01B4EF" transform="translate(3276,391)"/>
<path d="M0 0 C0 38.28 0 76.56 0 116 C-5.94 117.65 -11.88 119.3 -18 121 C-67.85891451 134.95085631 -115.62975759 152.57736307 -162.22265625 175.25610352 C-163.20105469 175.73233154 -164.17945313 176.20855957 -165.1875 176.69921875 C-166.04730469 177.12033936 -166.90710938 177.54145996 -167.79296875 177.9753418 C-170 179 -170 179 -173 180 C-173 141.72 -173 103.44 -173 64 C-121.39883532 36.84149227 -67.44534885 16.59866251 -11 2 C-10.1322998 1.77022461 -9.26459961 1.54044922 -8.37060547 1.30371094 C-5.48447904 0.55194528 -2.99772537 0 0 0 Z " fill="#01B4EF" transform="translate(173,553)"/>
<path d="M0 0 C13.45718952 11.26754512 20.18821555 27.9627066 22.2421875 45.0546875 C23.29030014 63.92071498 19.81918627 81.73388316 8.2421875 97.0546875 C7.76523438 97.71984375 7.28828125 98.385 6.796875 99.0703125 C-3.26717056 111.91587819 -19.33615662 117.86010636 -34.9453125 120.3671875 C-57.05833269 122.97309897 -77.93623777 118.81213031 -95.9453125 105.3671875 C-108.3387142 95.03935275 -115.56939255 79.86318481 -117.7578125 64.0546875 C-119.56238907 43.70666203 -116.24654303 24.96423593 -103.6953125 8.3671875 C-78.59158709 -20.82221134 -30.1262807 -21.25054927 0 0 Z " fill="#01B4EF" transform="translate(3008.7578125,235.9453125)"/>
</svg>
